<svg xmlns="http://www.w3.org/2000/svg" xmlns:xlink="http://www.w3.org/1999/xlink" width="500" zoomAndPan="magnify" viewBox="0 0 375 374.999991" height="500" preserveAspectRatio="xMidYMid meet" version="1.0"><defs><g/><clipPath id="e2d6cc57e5"><path d="M 50.628906 153.78125 L 139.878906 153.78125 L 139.878906 262.53125 L 50.628906 262.53125 Z M 50.628906 153.78125 " clip-rule="nonzero"/></clipPath></defs><g clip-path="url(#e2d6cc57e5)"><path fill="#ff914d" d="M 74.652344 153.527344 C 61.390625 153.527344 50.636719 164.28125 50.636719 177.546875 L 50.636719 248.339844 C 50.636719 256.019531 56.859375 262.242188 64.539062 262.242188 C 72.21875 262.242188 78.445312 256.019531 78.445312 248.339844 L 78.445312 238.226562 C 78.445312 229.148438 85.804688 221.792969 94.878906 221.792969 L 125.21875 221.792969 C 132.898438 221.792969 139.125 215.566406 139.125 207.886719 C 139.125 200.207031 132.898438 193.980469 125.21875 193.980469 L 84.765625 193.980469 C 81.277344 193.980469 78.445312 191.152344 78.445312 187.660156 C 78.445312 184.167969 81.277344 181.339844 84.765625 181.339844 L 125.21875 181.339844 C 132.898438 181.339844 139.125 175.113281 139.125 167.433594 C 139.125 159.753906 132.898438 153.527344 125.21875 153.527344 Z M 74.652344 153.527344 " fill-opacity="1" fill-rule="evenodd"/></g><g fill="#000000" fill-opacity="1"><g transform="translate(139.643652, 235.457905)"><g><path d="M 4.777344 3.683594 L 16.921875 3.683594 L 16.921875 -57.035156 L 4.777344 -57.035156 Z M 4.777344 3.683594 "/></g></g></g><g fill="#000000" fill-opacity="1"><g transform="translate(161.343238, 235.457905)"><g><path d="M 48.414062 -30.160156 C 48.414062 -33.140625 47.554688 -35.722656 45.910156 -37.839844 C 44.261719 -39.953125 42.226562 -41.050781 39.796875 -41.050781 L 12.300781 -41.050781 C 9.871094 -41.050781 7.835938 -39.953125 6.109375 -37.839844 C 4.308594 -35.644531 3.445312 -33.0625 3.445312 -30.160156 L 3.445312 -7.207031 C 3.445312 -4.152344 4.308594 -1.644531 6.109375 0.46875 C 7.914062 2.585938 10.027344 3.683594 12.300781 3.683594 L 39.796875 3.683594 C 42.148438 3.683594 44.183594 2.585938 45.910156 0.46875 C 47.554688 -1.566406 48.414062 -4.152344 48.414062 -7.207031 Z M 15.589844 -31.492188 L 36.273438 -31.492188 L 36.273438 -5.875 L 15.589844 -5.875 Z M 15.589844 -31.492188 "/></g></g></g><g fill="#000000" fill-opacity="1"><g transform="translate(213.202888, 235.457905)"><g><path d="M 14.570312 3.683594 L 29.378906 3.683594 L 36.117188 -27.578125 L 36.195312 -27.578125 L 43.089844 3.683594 L 57.894531 3.683594 L 71.996094 -41.050781 L 58.914062 -41.050781 L 50.609375 -8.617188 L 50.453125 -8.617188 L 43.871094 -41.050781 L 28.4375 -41.050781 L 22.015625 -8.617188 L 21.9375 -8.617188 L 13.398438 -41.050781 L 0.3125 -41.050781 Z M 14.570312 3.683594 "/></g></g></g><g fill="#000000" fill-opacity="1"><g transform="translate(285.508714, 235.457905)"><g><path d="M 26.636719 -27.105469 L 5.328125 3.683594 L 19.585938 3.683594 L 33.765625 -16.765625 L 48.023438 3.683594 L 62.28125 3.683594 L 40.972656 -27.105469 L 61.65625 -57.035156 L 47.320312 -57.035156 L 33.765625 -37.449219 L 20.289062 -57.035156 L 5.953125 -57.035156 Z M 26.636719 -27.105469 "/></g></g></g></svg>