<svg xmlns="http://www.w3.org/2000/svg" xmlns:xlink="http://www.w3.org/1999/xlink" width="500" zoomAndPan="magnify" viewBox="0 0 375 374.999991" height="500" preserveAspectRatio="xMidYMid meet" version="1.0"><defs><g/><clipPath id="fc9b3d07c8"><path d="M 37.5 132.125 L 121 132.125 L 121 234.125 L 37.5 234.125 Z M 37.5 132.125 " clip-rule="nonzero"/></clipPath><clipPath id="b5aa135571"><path d="M 251.089844 136.433594 L 336.589844 136.433594 L 336.589844 230.183594 L 251.089844 230.183594 Z M 251.089844 136.433594 " clip-rule="nonzero"/></clipPath></defs><rect x="-37.5" width="450" fill="#ffffff" y="-37.499999" height="449.999989" fill-opacity="1"/><rect x="-37.5" width="450" fill="#ffffff" y="-37.499999" height="449.999989" fill-opacity="1"/><g clip-path="url(#fc9b3d07c8)"><path fill="#ff914d" d="M 60.113281 131.886719 C 47.628906 131.886719 37.507812 142.003906 37.507812 154.488281 L 37.507812 221.105469 C 37.507812 228.332031 43.367188 234.191406 50.59375 234.191406 C 57.820312 234.191406 63.679688 228.332031 63.679688 221.105469 L 63.679688 211.589844 C 63.679688 203.046875 70.605469 196.125 79.144531 196.125 L 107.695312 196.125 C 114.921875 196.125 120.78125 190.265625 120.78125 183.039062 C 120.78125 175.8125 114.921875 169.953125 107.695312 169.953125 L 69.628906 169.953125 C 66.34375 169.953125 63.679688 167.289062 63.679688 164.003906 C 63.679688 160.71875 66.34375 158.058594 69.628906 158.058594 L 107.695312 158.058594 C 114.921875 158.058594 120.78125 152.199219 120.78125 144.972656 C 120.78125 137.746094 114.921875 131.886719 107.695312 131.886719 Z M 60.113281 131.886719 " fill-opacity="1" fill-rule="evenodd"/></g><g clip-path="url(#b5aa135571)"><path fill="#000000" d="M 307.171875 183.308594 L 336.230469 139.867188 C 336.667969 139.214844 336.710938 138.378906 336.339844 137.6875 C 335.96875 137 335.246094 136.566406 334.457031 136.566406 L 318.808594 136.566406 C 318.109375 136.566406 317.457031 136.90625 317.058594 137.476562 L 293.945312 170.558594 L 270.835938 137.476562 C 270.433594 136.90625 269.78125 136.566406 269.085938 136.566406 L 253.4375 136.566406 C 252.648438 136.566406 251.925781 136.996094 251.554688 137.6875 C 251.183594 138.378906 251.226562 139.214844 251.660156 139.867188 L 280.722656 183.308594 L 251.660156 226.746094 C 251.226562 227.398438 251.183594 228.238281 251.554688 228.929688 C 251.925781 229.617188 252.648438 230.050781 253.4375 230.050781 L 269.085938 230.050781 C 269.78125 230.050781 270.4375 229.710938 270.835938 229.140625 L 293.945312 196.054688 L 317.058594 229.140625 C 317.457031 229.710938 318.109375 230.050781 318.808594 230.050781 L 334.457031 230.050781 C 335.246094 230.050781 335.96875 229.621094 336.339844 228.929688 C 336.710938 228.238281 336.667969 227.398438 336.230469 226.75 Z M 307.171875 183.308594 " fill-opacity="1" fill-rule="nonzero"/></g><g fill="#000000" fill-opacity="1"><g transform="translate(121.266237, 225.537345)"><g><path d="M 4.253906 3.277344 L 15.058594 3.277344 L 15.058594 -50.757812 L 4.253906 -50.757812 Z M 4.253906 3.277344 "/></g></g></g><g fill="#000000" fill-opacity="1"><g transform="translate(140.578025, 225.537345)"><g><path d="M 43.089844 -26.84375 C 43.089844 -29.492188 42.320312 -31.792969 40.855469 -33.675781 C 39.394531 -35.558594 37.582031 -36.535156 35.417969 -36.535156 L 10.945312 -36.535156 C 8.785156 -36.535156 6.972656 -35.558594 5.4375 -33.675781 C 3.835938 -31.722656 3.066406 -29.421875 3.066406 -26.84375 L 3.066406 -6.414062 C 3.066406 -3.695312 3.835938 -1.464844 5.4375 0.417969 C 7.042969 2.300781 8.925781 3.277344 10.945312 3.277344 L 35.417969 3.277344 C 37.511719 3.277344 39.324219 2.300781 40.855469 0.417969 C 42.320312 -1.394531 43.089844 -3.695312 43.089844 -6.414062 Z M 13.875 -28.027344 L 32.28125 -28.027344 L 32.28125 -5.230469 L 13.875 -5.230469 Z M 13.875 -28.027344 "/></g></g></g><g fill="#000000" fill-opacity="1"><g transform="translate(186.7311, 225.537345)"><g><path d="M 12.96875 3.277344 L 26.144531 3.277344 L 32.140625 -24.542969 L 32.210938 -24.542969 L 38.347656 3.277344 L 51.523438 3.277344 L 64.074219 -36.535156 L 52.429688 -36.535156 L 45.039062 -7.667969 L 44.902344 -7.667969 L 39.042969 -36.535156 L 25.308594 -36.535156 L 19.59375 -7.667969 L 19.523438 -7.667969 L 11.921875 -36.535156 L 0.277344 -36.535156 Z M 12.96875 3.277344 "/></g></g></g></svg>