<svg version="1.1" id="Layer_1" xmlns="http://www.w3.org/2000/svg" xmlns:xlink="http://www.w3.org/1999/xlink" x="0px" y="0px"
	 width="100%" viewBox="0 0 336 336" enable-background="new 0 0 336 336" xml:space="preserve">
<path fill="#638596" opacity="1.000000" stroke="none" 
	d="
M85.000000,337.000000 
	C57.009613,337.000000 29.019226,337.000000 1.021629,337.000000 
	C1.014420,225.048065 1.014420,113.096130 1.014420,1.072098 
	C112.913445,1.072098 224.826950,1.072098 336.870239,1.072098 
	C336.870239,112.999916 336.870239,224.999939 336.872681,336.999969 
	C276.562500,337.000000 216.249908,337.000000 155.468658,336.531342 
	C155.000000,327.158752 155.000000,318.254852 155.000000,308.835480 
	C174.000519,308.835480 192.340897,308.835480 211.019501,308.835480 
	C211.019501,303.846252 211.019501,299.384674 211.019028,294.970825 
	C211.018555,295.018555 210.923080,295.019531 211.393738,295.011780 
	C216.130005,295.003998 220.395615,295.003998 225.019501,295.003998 
	C225.019501,289.863617 225.019501,285.393341 225.019028,280.970825 
	C225.018555,281.018555 224.923080,281.019531 225.393738,281.011780 
	C230.127869,281.003998 234.391312,281.003998 238.669678,281.003998 
	C238.669678,220.009964 238.669678,159.687820 238.669678,99.057854 
	C233.878189,99.057854 229.411774,99.057854 224.967346,98.587486 
	C224.989304,93.857849 224.989304,89.598579 224.989304,85.054665 
	C219.870636,85.054665 215.406433,85.054665 210.965225,84.585876 
	C210.988235,79.859253 210.988235,75.601425 210.988235,71.335266 
	C178.003632,71.335266 145.679077,71.335266 113.057838,71.335266 
	C113.057838,76.128723 113.057838,80.591682 112.587479,85.032661 
	C107.857841,85.010681 103.598572,85.010681 99.054657,85.010681 
	C99.054657,90.129387 99.054657,94.593605 98.585861,99.034790 
	C93.854172,99.011765 89.591263,99.011765 84.980499,99.011765 
	C84.980499,122.816704 84.980499,145.946808 84.980972,169.029175 
	C84.981445,168.981445 85.076920,168.980484 84.606255,168.988251 
	C79.869598,168.996033 75.603600,168.996033 71.414734,168.996033 
	C71.414734,183.390945 71.414734,197.101730 71.414734,211.221786 
	C76.094971,211.221786 80.360489,211.221786 85.000000,211.221786 
	C85.000000,253.426239 85.000000,295.213104 85.000000,337.000000 
z"/>
<path fill="#DBB180" opacity="1.000000" stroke="none" 
	d="
M141.000000,337.000000 
	C127.312439,337.000000 113.624878,337.000000 99.468658,336.531342 
	C99.000000,289.821869 99.000000,243.581039 99.000000,196.864044 
	C94.062454,196.864044 89.654297,196.864044 85.076920,196.864044 
	C85.076920,187.251816 85.076920,178.116150 85.076920,168.980484 
	C85.076920,168.980484 84.981445,168.981445 85.449829,168.995636 
	C94.850235,169.009827 103.782272,169.009827 113.180885,169.009827 
	C113.180885,178.652847 113.180885,187.720505 113.180885,196.641296 
	C132.051910,196.641296 150.441711,196.641296 169.304947,196.641296 
	C169.304947,187.221237 169.304947,178.154602 169.304947,169.249207 
	C174.065109,169.249207 178.343307,169.249207 183.086670,169.249207 
	C183.086670,178.554794 183.086670,187.621872 183.086670,197.150482 
	C197.288864,197.150482 211.018372,197.150482 224.923080,197.150482 
	C224.923080,225.424408 224.923080,253.221970 224.923080,281.019531 
	C224.923080,281.019531 225.018555,281.018555 224.552780,281.004333 
	C219.750717,280.990112 215.414413,280.990112 210.923080,280.990112 
	C210.923080,286.188873 210.923080,290.604218 210.923080,295.019531 
	C210.923080,295.019531 211.018555,295.018555 210.550171,295.004395 
	C187.153000,294.990204 164.224243,294.990204 141.000000,294.990204 
	C141.000000,309.393158 141.000000,323.196564 141.000000,337.000000 
M189.430679,253.000000 
	C178.028900,253.000000 166.627121,253.000000 155.343079,253.000000 
	C155.343079,258.041718 155.343079,262.421997 155.343079,266.683960 
	C169.375992,266.683960 183.063782,266.683960 196.666199,266.683960 
	C196.666199,261.978333 196.666199,257.598175 196.666199,253.000000 
	C194.359467,253.000000 192.385147,253.000000 189.430679,253.000000 
M196.999786,221.347244 
	C196.999786,217.945602 196.999786,214.543961 196.999786,211.356995 
	C187.228027,211.356995 178.192627,211.356995 169.373322,211.356995 
	C169.373322,216.103455 169.373322,220.486435 169.373322,224.998566 
	C177.868179,224.998566 185.992630,225.089890 194.109299,224.879852 
	C195.093811,224.854355 196.036285,223.204208 196.999786,221.347244 
z"/>
<path fill="#000000" opacity="1.000000" stroke="none" 
	d="
M84.606255,168.988251 
	C85.076920,178.116150 85.076920,187.251816 85.076920,196.864044 
	C89.654297,196.864044 94.062454,196.864044 99.000000,196.864044 
	C99.000000,243.581039 99.000000,289.821869 99.000000,336.531342 
	C94.643097,337.000000 90.286201,337.000000 85.464645,337.000000 
	C85.000000,295.213104 85.000000,253.426239 85.000000,211.221786 
	C80.360489,211.221786 76.094971,211.221786 71.414734,211.221786 
	C71.414734,197.101730 71.414734,183.390945 71.414734,168.996033 
	C75.603600,168.996033 79.869598,168.996033 84.606255,168.988251 
z"/>
<path fill="#000000" opacity="1.000000" stroke="none" 
	d="
M141.464645,337.000000 
	C141.000000,323.196564 141.000000,309.393158 141.000000,294.990204 
	C164.224243,294.990204 187.153000,294.990204 210.550629,294.956635 
	C211.019501,299.384674 211.019501,303.846252 211.019501,308.835480 
	C192.340897,308.835480 174.000519,308.835480 155.000000,308.835480 
	C155.000000,318.254852 155.000000,327.158752 155.000000,336.531342 
	C150.643097,337.000000 146.286194,337.000000 141.464645,337.000000 
z"/>
<path fill="#000000" opacity="1.000000" stroke="none" 
	d="
M225.393738,281.011780 
	C224.923080,253.221970 224.923080,225.424408 224.923080,197.150482 
	C211.018372,197.150482 197.288864,197.150482 183.086670,197.150482 
	C183.086670,187.621872 183.086670,178.554794 183.086670,169.249207 
	C178.343307,169.249207 174.065109,169.249207 169.304947,169.249207 
	C169.304947,178.154602 169.304947,187.221237 169.304947,196.641296 
	C150.441711,196.641296 132.051910,196.641296 113.180885,196.641296 
	C113.180885,187.720505 113.180885,178.652847 113.180885,169.009827 
	C103.782272,169.009827 94.850235,169.009827 85.449356,169.043365 
	C84.980499,145.946808 84.980499,122.816704 84.980499,99.011765 
	C89.591263,99.011765 93.854172,99.011765 98.564903,99.012848 
	C99.012733,99.013924 98.970413,98.970413 98.980103,99.440887 
	C99.032532,113.639328 99.075264,127.367302 99.066574,141.553436 
	C99.015137,146.254761 99.015137,150.497955 99.015137,154.688232 
	C103.991806,154.688232 108.369263,154.688232 112.977051,154.688232 
	C112.977051,149.927307 112.977051,145.476013 113.447083,141.016602 
	C132.285736,141.013901 150.654343,141.019318 169.012970,141.488220 
	C169.002975,146.206207 169.002975,150.460663 169.002975,155.000000 
	C171.706985,155.000000 173.836441,155.000000 175.965897,155.000000 
	C178.222565,155.000000 180.479233,155.000000 182.977036,155.000000 
	C182.977036,149.938278 182.977036,145.481506 183.447067,141.016602 
	C196.030014,141.005356 208.145035,140.875473 220.254593,141.075439 
	C223.940552,141.136322 225.138611,140.052887 225.078384,136.303253 
	C224.878540,123.861931 225.019409,111.415123 225.008453,98.992188 
	C224.987305,99.013954 224.945374,99.057854 224.945374,99.057854 
	C229.411774,99.057854 233.878189,99.057854 238.669678,99.057854 
	C238.669678,159.687820 238.669678,220.009964 238.669678,281.003998 
	C234.391312,281.003998 230.127869,281.003998 225.393738,281.011780 
M133.583221,155.000000 
	C131.485123,155.000000 129.387039,155.000000 127.284416,155.000000 
	C127.284416,164.615799 127.284416,173.661957 127.284416,182.714447 
	C136.617920,182.714447 145.664398,182.714447 154.713318,182.714447 
	C154.713318,173.379608 154.713318,164.333313 154.713318,155.000000 
	C147.809448,155.000000 141.188553,155.000000 133.583221,155.000000 
M216.453323,183.000000 
	C219.217392,183.000000 221.981461,183.000000 224.705353,183.000000 
	C224.705353,173.362717 224.705353,164.316376 224.705353,155.295258 
	C215.361481,155.295258 206.315125,155.295258 197.295868,155.295258 
	C197.295868,164.639771 197.295868,173.686127 197.295868,183.000000 
	C203.546509,183.000000 209.504791,183.000000 216.453323,183.000000 
z"/>
<path fill="#000000" opacity="1.000000" stroke="none" 
	d="
M113.057838,85.054642 
	C113.057838,80.591682 113.057838,76.128723 113.057838,71.335266 
	C145.679077,71.335266 178.003632,71.335266 210.988235,71.335266 
	C210.988235,75.601425 210.988235,79.859253 210.987167,84.564911 
	C210.986099,85.012741 211.029602,84.970421 210.559113,84.980118 
	C177.715881,84.983345 145.343155,84.976875 112.992172,84.991570 
	C113.013939,85.012726 113.057838,85.054642 113.057838,85.054642 
z"/>
<path fill="#000000" opacity="1.000000" stroke="none" 
	d="
M210.964157,85.033707 
	C215.406433,85.054665 219.870636,85.054665 224.989304,85.054665 
	C224.989304,89.598579 224.989304,93.857849 224.967346,98.587486 
	C224.945374,99.057854 224.987305,99.013954 224.540970,99.001862 
	C210.930420,99.032532 210.930328,99.032532 211.010437,85.957024 
	C211.012451,85.628136 211.023010,85.299286 211.029602,84.970421 
	C211.029602,84.970421 210.986099,85.012741 210.964157,85.033707 
z"/>
<path fill="#000000" opacity="1.000000" stroke="none" 
	d="
M99.033691,99.035873 
	C99.054657,94.593605 99.054657,90.129387 99.054657,85.010681 
	C103.598572,85.010681 107.857841,85.010681 112.587479,85.032661 
	C113.057838,85.054642 113.013939,85.012726 113.001846,85.459061 
	C113.032547,99.069473 113.032547,99.069572 99.957016,98.989555 
	C99.628128,98.987549 99.299278,98.976982 98.970413,98.970413 
	C98.970413,98.970413 99.012733,99.013924 99.033691,99.035873 
z"/>
<path fill="#000000" opacity="1.000000" stroke="none" 
	d="
M211.393738,295.011780 
	C210.923080,290.604218 210.923080,286.188873 210.923080,280.990112 
	C215.414413,280.990112 219.750717,280.990112 224.553253,280.956604 
	C225.019501,285.393341 225.019501,289.863617 225.019501,295.003998 
	C220.395615,295.003998 216.130005,295.003998 211.393738,295.011780 
z"/>
<path fill="#000000" opacity="1.000000" stroke="none" 
	d="
M189.920746,253.000000 
	C192.385147,253.000000 194.359467,253.000000 196.666199,253.000000 
	C196.666199,257.598175 196.666199,261.978333 196.666199,266.683960 
	C183.063782,266.683960 169.375992,266.683960 155.343079,266.683960 
	C155.343079,262.421997 155.343079,258.041718 155.343079,253.000000 
	C166.627121,253.000000 178.028900,253.000000 189.920746,253.000000 
z"/>
<path fill="#000000" opacity="1.000000" stroke="none" 
	d="
M196.999023,221.827133 
	C196.036285,223.204208 195.093811,224.854355 194.109299,224.879852 
	C185.992630,225.089890 177.868179,224.998566 169.373322,224.998566 
	C169.373322,220.486435 169.373322,216.103455 169.373322,211.356995 
	C178.192627,211.356995 187.228027,211.356995 196.999786,211.356995 
	C196.999786,214.543961 196.999786,217.945602 196.999023,221.827133 
z"/>
<path fill="#4C4C4C" opacity="1.000000" stroke="none" 
	d="
M98.980103,99.440887 
	C99.299278,98.976982 99.628128,98.987549 99.957016,98.989555 
	C113.032547,99.069572 113.032547,99.069473 112.980087,85.437897 
	C145.343155,84.976875 177.715881,84.983345 210.559113,84.980118 
	C211.023010,85.299286 211.012451,85.628136 211.010437,85.957024 
	C210.930328,99.032532 210.930420,99.032532 224.562119,98.980087 
	C225.019409,111.415123 224.878540,123.861931 225.078384,136.303253 
	C225.138611,140.052887 223.940552,141.136322 220.254593,141.075439 
	C208.145035,140.875473 196.030014,141.005356 182.983932,141.006927 
	C177.708160,141.011826 173.365570,141.018265 169.022964,141.024719 
	C150.654343,141.019318 132.285736,141.013901 112.984528,141.006927 
	C107.740631,141.035339 103.429314,141.065308 99.118004,141.095276 
	C99.075264,127.367302 99.032532,113.639328 98.980103,99.440887 
M127.918846,112.993027 
	C131.083893,112.989349 134.266449,113.175392 137.405090,112.885681 
	C138.607483,112.774696 140.399734,111.821342 140.748764,110.835892 
	C143.691299,102.527878 140.938049,98.842102 132.183868,99.000961 
	C132.017334,99.003983 131.848984,99.017815 131.684357,99.000031 
	C128.317352,98.636330 126.730400,99.958214 126.961624,103.521339 
	C127.166176,106.673393 127.010620,109.848808 126.080055,113.005142 
	C122.915054,113.009438 119.732513,112.824020 116.593971,113.114349 
	C115.391739,113.225563 113.599930,114.179382 113.251106,115.164894 
	C110.310623,123.472488 113.064011,127.157921 121.816650,126.999023 
	C121.983177,126.996002 122.151512,126.982193 122.316132,126.999985 
	C125.683548,127.363808 127.269539,126.040993 127.038383,122.478340 
	C126.833870,119.326347 126.989479,116.150986 127.918846,112.993027 
z"/>
<path fill="#80DBDA" opacity="1.000000" stroke="none" 
	d="
M134.075439,155.000000 
	C141.188553,155.000000 147.809448,155.000000 154.713318,155.000000 
	C154.713318,164.333313 154.713318,173.379608 154.713318,182.714447 
	C145.664398,182.714447 136.617920,182.714447 127.284416,182.714447 
	C127.284416,173.661957 127.284416,164.615799 127.284416,155.000000 
	C129.387039,155.000000 131.485123,155.000000 134.075439,155.000000 
z"/>
<path fill="#80DBDA" opacity="1.000000" stroke="none" 
	d="
M215.958206,183.000000 
	C209.504791,183.000000 203.546509,183.000000 197.295868,183.000000 
	C197.295868,173.686127 197.295868,164.639771 197.295868,155.295258 
	C206.315125,155.295258 215.361481,155.295258 224.705353,155.295258 
	C224.705353,164.316376 224.705353,173.362717 224.705353,183.000000 
	C221.981461,183.000000 219.217392,183.000000 215.958206,183.000000 
z"/>
<path fill="#DBB180" opacity="1.000000" stroke="none" 
	d="
M99.066574,141.553436 
	C103.429314,141.065308 107.740631,141.035339 112.514496,141.015045 
	C112.977051,145.476013 112.977051,149.927307 112.977051,154.688232 
	C108.369263,154.688232 103.991806,154.688232 99.015137,154.688232 
	C99.015137,150.497955 99.015137,146.254761 99.066574,141.553436 
z"/>
<path fill="#DBB180" opacity="1.000000" stroke="none" 
	d="
M169.012970,141.488220 
	C173.365570,141.018265 177.708160,141.011826 182.513901,141.015045 
	C182.977036,145.481506 182.977036,149.938278 182.977036,155.000000 
	C180.479233,155.000000 178.222565,155.000000 175.965897,155.000000 
	C173.836441,155.000000 171.706985,155.000000 169.002975,155.000000 
	C169.002975,150.460663 169.002975,146.206207 169.012970,141.488220 
z"/>
<path fill="#636363" opacity="1.000000" stroke="none" 
	d="
M127.014053,113.013908 
	C127.010620,109.848808 127.166176,106.673393 126.961624,103.521339 
	C126.730400,99.958214 128.317352,98.636330 131.684357,99.000031 
	C131.848984,99.017815 132.017334,99.003983 132.183868,99.000961 
	C140.938049,98.842102 143.691299,102.527878 140.748764,110.835892 
	C140.399734,111.821342 138.607483,112.774696 137.405090,112.885681 
	C134.266449,113.175392 131.083893,112.989349 127.459427,112.996513 
	C127.000000,113.000000 127.014053,113.013908 127.014053,113.013908 
z"/>
<path fill="#636363" opacity="1.000000" stroke="none" 
	d="
M126.993042,112.992973 
	C126.989479,116.150986 126.833870,119.326347 127.038383,122.478340 
	C127.269539,126.040993 125.683548,127.363808 122.316132,126.999985 
	C122.151512,126.982193 121.983177,126.996002 121.816650,126.999023 
	C113.064011,127.157921 110.310623,123.472488 113.251106,115.164894 
	C113.599930,114.179382 115.391739,113.225563 116.593971,113.114349 
	C119.732513,112.824020 122.915054,113.009438 126.547058,113.009521 
	C127.014053,113.013908 127.000000,113.000000 126.993042,112.992973 
z"/>
</svg>